<?xml version="1.0" encoding="utf-8"?>
<!-- Generator: Adobe Illustrator 15.0.2, SVG Export Plug-In . SVG Version: 6.00 Build 0)  -->
<!DOCTYPE svg PUBLIC "-//W3C//DTD SVG 1.1//EN" "http://www.w3.org/Graphics/SVG/1.1/DTD/svg11.dtd">
<svg version="1.1" id="Layer_1" xmlns="http://www.w3.org/2000/svg" xmlns:xlink="http://www.w3.org/1999/xlink" x="0px" y="0px"
	 width="700px" height="104.428px" viewBox="0 0 700 104.428" enable-background="new 0 0 700 104.428" xml:space="preserve">
<g>
	<path fill="#FFFFFF" d="M75.283,63.528c0,2.663-0.427,5.006-1.28,7.03c-0.854,2.024-2.054,3.728-3.6,5.112
		c-1.547,1.385-3.388,2.438-5.52,3.156c-2.134,0.719-4.48,1.078-7.04,1.078h-23.84v-56.96h22.88c5.6,0,9.933,1.442,13,4.328
		c3.066,2.885,4.6,6.784,4.6,11.697c0,1.603-0.228,3.045-0.68,4.326c-0.454,1.283-1.04,2.417-1.76,3.405
		c-0.72,0.989-1.494,1.83-2.32,2.523c-0.827,0.695-1.587,1.203-2.28,1.522c0.853,0.426,1.746,0.973,2.68,1.638
		c0.933,0.667,1.773,1.505,2.52,2.516c0.747,1.013,1.373,2.224,1.88,3.635C75.029,59.947,75.283,61.611,75.283,63.528z
		 M63.363,39.465c0-1.985-0.627-3.582-1.88-4.789c-1.254-1.208-3.08-1.812-5.48-1.812h-10.88v13.2h10.88
		c2.4,0,4.226-0.604,5.48-1.812C62.735,43.046,63.363,41.45,63.363,39.465z M64.163,62.945c0-1.92-0.6-3.56-1.8-4.92
		c-1.2-1.36-3.08-2.04-5.64-2.04h-11.6v14h11.6c2.56,0,4.44-0.692,5.64-2.08C63.563,66.519,64.163,64.865,64.163,62.945z"/>
	<path fill="#FFFFFF" d="M129.202,51.425c0,2.454-0.027,4.748-0.08,6.88c-0.054,2.134-0.254,4.134-0.6,6
		c-0.348,1.868-0.908,3.614-1.68,5.24c-0.774,1.627-1.88,3.16-3.32,4.6c-2.028,2.027-4.28,3.574-6.76,4.64
		c-2.48,1.067-5.347,1.6-8.6,1.6c-3.253,0-6.133-0.533-8.64-1.6c-2.508-1.066-4.774-2.612-6.8-4.64c-1.44-1.44-2.547-2.973-3.32-4.6
		c-0.774-1.626-1.32-3.373-1.64-5.24c-0.32-1.866-0.507-3.866-0.56-6c-0.054-2.132-0.08-4.426-0.08-6.88
		c0-2.453,0.026-4.746,0.08-6.88c0.053-2.133,0.24-4.133,0.56-6c0.32-1.866,0.866-3.613,1.64-5.24c0.772-1.626,1.88-3.16,3.32-4.6
		c2.026-2.026,4.292-3.572,6.8-4.64c2.506-1.066,5.386-1.6,8.64-1.6c3.253,0,6.12,0.534,8.6,1.6c2.48,1.067,4.732,2.614,6.76,4.64
		c1.44,1.44,2.546,2.974,3.32,4.6c0.772,1.627,1.333,3.374,1.68,5.24c0.346,1.867,0.546,3.867,0.6,6
		C129.174,46.679,129.202,48.972,129.202,51.425z M118.082,51.425c0-2.72-0.04-4.973-0.12-6.76c-0.08-1.786-0.228-3.266-0.44-4.44
		c-0.214-1.172-0.508-2.12-0.88-2.84c-0.374-0.72-0.828-1.373-1.36-1.96c-0.8-0.906-1.8-1.64-3-2.2c-1.2-0.56-2.574-0.84-4.12-0.84
		c-1.547,0-2.934,0.28-4.16,0.84c-1.228,0.56-2.24,1.294-3.04,2.2c-0.534,0.587-0.974,1.24-1.32,1.96
		c-0.348,0.72-0.628,1.667-0.84,2.84c-0.214,1.174-0.36,2.654-0.44,4.44c-0.08,1.788-0.12,4.04-0.12,6.76s0.04,4.974,0.12,6.76
		c0.08,1.788,0.226,3.268,0.44,4.44c0.212,1.173,0.493,2.12,0.84,2.84c0.346,0.72,0.786,1.374,1.32,1.96
		c0.8,0.908,1.812,1.64,3.04,2.2c1.226,0.56,2.612,0.84,4.16,0.84c1.546,0,2.92-0.28,4.12-0.84c1.2-0.56,2.2-1.292,3-2.2
		c0.533-0.586,0.986-1.24,1.36-1.96c0.372-0.72,0.666-1.667,0.88-2.84c0.212-1.173,0.36-2.653,0.44-4.44
		C118.042,56.398,118.082,54.145,118.082,51.425z"/>
	<path fill="#FFFFFF" d="M173.201,79.905l-11.12-22.72h-8v22.72h-11.12v-56.96h22.32c2.88,0,5.466,0.467,7.76,1.4
		c2.292,0.934,4.24,2.188,5.84,3.76c1.6,1.574,2.812,3.414,3.64,5.52c0.826,2.107,1.24,4.36,1.24,6.76c0,2.027-0.28,3.84-0.84,5.44
		s-1.32,3.027-2.28,4.28c-0.96,1.253-2.067,2.32-3.32,3.2c-1.254,0.88-2.574,1.56-3.96,2.04l12.72,24.56H173.201z M172.641,40.385
		c0-2.24-0.733-4.052-2.2-5.44c-1.468-1.386-3.428-2.08-5.88-2.08h-10.48v15.04h10.48c2.452,0,4.412-0.692,5.88-2.08
		C171.908,44.438,172.641,42.625,172.641,40.385z"/>
	<path fill="#FFFFFF" d="M239.041,51.185c0,2.134,0,4.254,0,6.36c0,2.107-0.16,4.147-0.48,6.12c-0.32,1.974-0.88,3.868-1.68,5.68
		c-0.8,1.814-2,3.52-3.6,5.12c-1.868,1.868-4.094,3.24-6.68,4.12c-2.587,0.88-5.374,1.32-8.36,1.32h-20.56v-56.96h20.56
		c2.986,0,5.772,0.44,8.36,1.32c2.586,0.88,4.812,2.254,6.68,4.12c1.6,1.6,2.8,3.28,3.6,5.04c0.8,1.76,1.36,3.6,1.68,5.52
		s0.48,3.907,0.48,5.96C239.041,46.958,239.041,49.052,239.041,51.185z M227.921,51.185c0-2.132-0.027-3.986-0.08-5.56
		c-0.054-1.573-0.16-2.946-0.32-4.12c-0.16-1.172-0.4-2.16-0.72-2.96c-0.32-0.8-0.747-1.52-1.28-2.16
		c-0.96-1.172-2.107-2.052-3.44-2.64c-1.334-0.586-2.96-0.88-4.88-0.88h-8.4v37.12h8.4c1.92,0,3.546-0.292,4.88-0.88
		c1.333-0.586,2.48-1.466,3.44-2.64c1.013-1.28,1.667-3.066,1.96-5.36C227.773,58.812,227.921,55.505,227.921,51.185z"/>
	<path fill="#FFFFFF" d="M252.801,79.905v-56.96h37.52v9.92h-26.4v13.36h22.48v9.92h-22.48v13.84h26.4v9.92H252.801z"/>
	<path fill="#FFFFFF" d="M333.84,79.905l-11.12-22.72h-8v22.72H303.6v-56.96h22.32c2.88,0,5.466,0.467,7.76,1.4
		c2.292,0.934,4.24,2.188,5.84,3.76c1.6,1.574,2.812,3.414,3.64,5.52c0.826,2.107,1.24,4.36,1.24,6.76c0,2.027-0.28,3.84-0.84,5.44
		s-1.32,3.027-2.28,4.28c-0.96,1.253-2.067,2.32-3.32,3.2c-1.254,0.88-2.574,1.56-3.96,2.04l12.72,24.56H333.84z M333.28,40.385
		c0-2.24-0.733-4.052-2.2-5.44c-1.468-1.386-3.428-2.08-5.88-2.08h-10.48v15.04h10.48c2.452,0,4.412-0.692,5.88-2.08
		C332.546,44.438,333.28,42.625,333.28,40.385z"/>
	<path fill="#FFFFFF" d="M420.159,40.705c0,2.4-0.428,4.68-1.28,6.84c-0.854,2.16-2.094,4.054-3.72,5.68
		c-1.627,1.627-3.6,2.908-5.92,3.84c-2.32,0.934-4.948,1.4-7.88,1.4h-10.96v21.44h-11.12v-56.96h22.08c2.932,0,5.56,0.467,7.88,1.4
		c2.32,0.934,4.292,2.214,5.92,3.84c1.626,1.628,2.866,3.52,3.72,5.68C419.731,36.025,420.159,38.305,420.159,40.705z
		 M409.039,40.745c0-2.357-0.734-4.261-2.2-5.708c-1.468-1.448-3.48-2.171-6.04-2.171h-10.4v15.68h10.4c2.56,0,4.572-0.71,6.04-2.13
		C408.305,44.995,409.039,43.105,409.039,40.745z"/>
	<path fill="#FFFFFF" d="M460.319,79.905l-3.36-10.08h-20.24l-3.44,10.08h-11.6l20.72-56.96h8.72l20.8,56.96H460.319z
		 M447.039,39.745l-7.2,20.72H454L447.039,39.745z"/>
	<path fill="#FFFFFF" d="M498.318,32.865v47.04h-11.12v-47.04h-14.88v-9.92h40.88v9.92H498.318z"/>
	<path fill="#FFFFFF" d="M554.878,79.905l-11.12-22.72h-8v22.72h-11.119v-56.96h22.319c2.88,0,5.466,0.467,7.761,1.4
		c2.292,0.934,4.239,2.188,5.84,3.76c1.6,1.574,2.812,3.414,3.64,5.52c0.826,2.107,1.239,4.36,1.239,6.76
		c0,2.027-0.279,3.84-0.84,5.44c-0.56,1.6-1.32,3.027-2.279,4.28c-0.961,1.253-2.068,2.32-3.32,3.2
		c-1.254,0.88-2.574,1.56-3.96,2.04l12.72,24.56H554.878z M554.318,40.385c0-2.24-0.734-4.052-2.2-5.44
		c-1.468-1.386-3.428-2.08-5.88-2.08h-10.48v15.04h10.48c2.452,0,4.412-0.692,5.88-2.08
		C553.584,44.438,554.318,42.625,554.318,40.385z"/>
	<path fill="#FFFFFF" d="M619.518,51.425c0,2.454-0.027,4.748-0.08,6.88c-0.055,2.134-0.254,4.134-0.6,6
		c-0.348,1.868-0.908,3.614-1.68,5.24c-0.775,1.627-1.881,3.16-3.32,4.6c-2.027,2.027-4.281,3.574-6.76,4.64
		c-2.48,1.067-5.348,1.6-8.602,1.6s-6.133-0.533-8.639-1.6c-2.508-1.066-4.773-2.612-6.801-4.64c-1.439-1.44-2.547-2.973-3.32-4.6
		c-0.773-1.626-1.32-3.373-1.639-5.24c-0.32-1.866-0.508-3.866-0.561-6c-0.055-2.132-0.08-4.426-0.08-6.88
		c0-2.453,0.025-4.746,0.08-6.88c0.053-2.133,0.24-4.133,0.561-6c0.318-1.866,0.865-3.613,1.639-5.24
		c0.773-1.626,1.881-3.16,3.32-4.6c2.027-2.026,4.293-3.572,6.801-4.64c2.506-1.066,5.385-1.6,8.639-1.6s6.121,0.534,8.602,1.6
		c2.479,1.067,4.732,2.614,6.76,4.64c1.439,1.44,2.545,2.974,3.32,4.6c0.771,1.627,1.332,3.374,1.68,5.24
		c0.346,1.867,0.545,3.867,0.6,6C619.49,46.679,619.518,48.972,619.518,51.425z M608.396,51.425c0-2.72-0.039-4.973-0.119-6.76
		c-0.08-1.786-0.229-3.266-0.439-4.44c-0.215-1.172-0.508-2.12-0.881-2.84s-0.828-1.373-1.359-1.96c-0.801-0.906-1.801-1.64-3-2.2
		c-1.201-0.56-2.574-0.84-4.121-0.84s-2.934,0.28-4.16,0.84s-2.238,1.294-3.039,2.2c-0.533,0.587-0.975,1.24-1.32,1.96
		c-0.348,0.72-0.627,1.667-0.84,2.84c-0.213,1.174-0.359,2.654-0.439,4.44c-0.08,1.788-0.121,4.04-0.121,6.76
		s0.041,4.974,0.121,6.76c0.08,1.788,0.227,3.268,0.439,4.44c0.213,1.173,0.492,2.12,0.84,2.84c0.346,0.72,0.787,1.374,1.32,1.96
		c0.801,0.908,1.812,1.64,3.039,2.2c1.227,0.56,2.613,0.84,4.16,0.84s2.92-0.28,4.121-0.84c1.199-0.56,2.199-1.292,3-2.2
		c0.531-0.586,0.986-1.24,1.359-1.96c0.373-0.72,0.666-1.667,0.881-2.84c0.211-1.173,0.359-2.653,0.439-4.44
		C608.357,56.398,608.396,54.145,608.396,51.425z"/>
	<path fill="#FFFFFF" d="M633.276,79.905v-56.96h11.12v47.04h25.84v9.92H633.276z"/>
</g>
</svg>
